<svg xmlns="http://www.w3.org/2000/svg" viewBox="0 0 24 24" fill="currentColor">
    <path d="M12 2c-.5 0-.9.2-1.2.5L9 5.3c-.3.4-.8.7-1.3.7H5c-.6 0-1 .4-1 1v2.7c0 .5-.3 1-.7 1.3L.5 12.8c-.3.3-.5.7-.5 1.2s.2.9.5 1.2l2.8 1.8c.4.3.7.8.7 1.3V21c0 .6.4 1 1 1h2.7c.5 0 1 .3 1.3.7l1.8 2.8c.3.3.7.5 1.2.5s.9-.2 1.2-.5l1.8-2.8c.3-.4.8-.7 1.3-.7H19c.6 0 1-.4 1-1v-2.7c0-.5.3-1 .7-1.3l2.8-1.8c.3-.3.5-.7.5-1.2s-.2-.9-.5-1.2l-2.8-1.8c-.4-.3-.7-.8-.7-1.3V7c0-.6-.4-1-1-1h-2.7c-.5 0-1-.3-1.3-.7l-1.8-2.8c-.3-.3-.7-.5-1.2-.5z"/>
</svg>
